<svg width="97" height="67" viewBox="0 0 97 67" fill="none" xmlns="http://www.w3.org/2000/svg">
<path d="M35.4905 31.1041C36.1695 31.3712 37.1745 31.3388 37.9893 31.5493C39.843 32.027 42.335 33.3952 43.6522 34.9983C43.7337 35.0954 43.7337 35.2735 43.822 35.3707C43.9103 35.4678 43.9782 35.3626 43.985 35.3707C44.4942 36.1398 45.1121 37.6133 45.2072 38.6415C45.3022 39.6697 45.0374 41.9933 44.6708 42.9891C44.6096 43.1591 44.4874 43.3291 44.4059 43.491L44.5417 43.5315L44.4263 43.6287C44.4806 43.8796 44.3109 43.9444 44.243 44.1063C43.1566 46.5999 42.0973 48.5673 40.5967 50.7613C40.3387 51.1337 39.68 52.17 39.4152 52.4291C39.1504 52.6882 39.2726 52.5262 39.1775 52.51L39.2454 52.7448C38.8109 52.8663 38.6683 53.3844 38.4035 53.7245C36.3596 56.3881 34.1868 58.6145 32.2584 61.3024C31.3621 62.5573 31.0226 63.4235 29.8207 64.3546C29.4269 64.6622 29.0399 65.4152 28.5917 65.7147C28.3337 65.8847 28.164 65.8766 27.9467 65.9981C27.7294 66.1195 27.6072 66.4434 27.5596 66.4677C27.4917 66.5162 27.3899 66.4515 27.322 66.5081C27.2541 66.5648 27.3084 66.6377 27.3016 66.6458C27.2609 66.6781 27.1862 66.5081 27.1251 66.4919C27.064 66.4757 26.9825 66.6134 26.9349 66.6215C26.8874 66.6296 26.609 66.2572 26.3578 66.4838C26.3374 66.3219 26.4732 66.2814 26.4936 66.1195C26.5207 65.82 26.3238 64.6703 26.7652 64.9537C26.7923 64.6946 26.9078 64.387 27.0164 64.1684C27.1251 63.9498 27.3763 63.7231 27.4306 63.464C27.4849 63.2049 27.3695 62.8082 27.3695 62.5653C27.3695 61.5452 27.451 60.517 27.4714 59.4969C27.5189 57.2705 27.5461 55.0117 27.6343 52.7853C27.6819 51.6519 27.5528 50.4536 27.8244 49.2878C28.0961 48.122 27.6615 47.2314 27.709 46.8023C27.7565 46.3732 27.8448 46.7618 27.8516 46.6971C27.8788 46.4947 27.7498 45.5798 27.7973 45.4098C27.8991 45.0374 27.8312 44.4059 27.8584 43.8715C27.8856 43.3372 27.9331 43.1105 27.9942 42.7462C27.7294 42.6328 27.8177 42.4547 28.0553 42.6167C28.0893 42.3495 27.8923 42.56 27.9127 42.2523C27.9331 41.9447 28.164 41.8475 28.0893 41.6451L27.9195 41.807C28.001 41.6613 27.9059 41.1998 27.9331 41.127C27.9602 41.0541 28.3337 40.7627 28.0893 40.7708C27.8448 40.7788 27.9195 40.6817 27.9195 40.4307H28.1232C27.8652 40.0583 27.9195 39.6292 27.9127 39.1758L28.1232 39.0949L27.9195 38.9329L28.1232 38.771L27.9195 38.6496V38.4877C28.2862 38.2124 28.4491 37.5485 28.5985 37.0304L29.067 37.1113C29.0942 36.9332 28.9788 36.8927 28.8633 36.8685L28.9991 36.4636L29.2707 36.5446L29.4201 35.9941C29.7936 36.0993 30.0584 35.5164 30.3504 35.9536C30.493 36.156 30.588 36.8118 30.7238 37.1194C30.8596 37.4271 30.9751 37.4271 31.0362 37.6457C30.9004 37.7914 30.9207 37.9533 30.8596 38.0829C30.7985 38.2124 30.7374 38.1476 30.6967 38.2286C30.5133 38.6496 30.6763 38.6658 30.6763 38.8601C30.6763 39.0544 30.6016 41.467 30.6423 41.6046C30.6831 41.7423 30.8461 41.6451 30.7646 42.0742C30.6831 42.5033 30.5812 42.1633 30.6491 42.3333C30.717 42.5033 30.7646 42.3414 30.7714 42.4952C30.7782 42.649 30.6695 43.4182 30.7035 43.5477C30.7374 43.6772 30.8393 43.5477 30.8325 43.6287L30.6967 43.7096V43.912L30.8325 43.8311C30.8528 44.2197 30.6831 44.5597 30.7102 44.9483C30.7374 45.3369 30.8393 45.3531 30.8257 45.4098C30.8121 45.4665 30.717 45.4422 30.7035 45.4988C30.6356 45.847 30.8664 46.0089 30.8325 46.1384C30.7985 46.268 30.7782 46.0251 30.7442 46.3732C30.7102 46.7214 30.7646 46.7699 30.7782 47.11C30.7917 47.45 30.8936 47.8791 30.6967 47.9196L30.8325 47.9601L30.6967 48.0815L30.8325 48.2029L30.6967 48.2434L30.8325 48.3325C30.8461 48.5511 30.88 48.6644 30.6967 48.7292C30.6831 48.7939 30.8461 48.7373 30.8664 48.9154C30.9207 49.3283 30.8868 50.1136 30.9004 50.5832C30.9275 51.5628 31.0498 53.1982 30.9683 54.1373C30.9411 54.4288 30.7646 54.445 30.7714 54.4693C30.7849 54.5988 30.9683 54.6555 30.9819 54.7931C31.0498 55.4732 30.9683 56.2909 30.9954 56.9791C31.0226 57.6672 31.0837 58.0396 31.1109 58.5578C31.2263 58.5902 31.2467 58.5011 31.3146 58.4364C31.7288 58.0558 32.3806 57.2219 32.7812 56.7524C35.1849 53.9268 37.6158 50.9799 39.4627 47.6119C39.938 46.7456 40.3183 46.0251 40.6374 45.0617C40.9566 44.0982 40.8547 44.3411 40.8954 43.912C40.9362 43.4829 40.9294 42.9648 40.9633 42.5195C40.9973 42.0742 41.1399 41.7666 41.0652 41.4751C40.9905 41.1836 40.7936 41.3537 41.0109 40.8922C40.7868 40.8193 40.9566 40.7141 40.9022 40.5198C40.8479 40.3255 40.5559 39.5321 40.5152 39.4916C40.4609 39.4349 40.3522 39.4916 40.3251 39.4673C40.2979 39.443 40.3998 39.3135 40.3658 39.2244C40.3319 39.1353 40.1825 39.103 40.1417 39.0463C38.1998 36.156 35.3411 35.3545 32.272 34.9497C29.9226 34.642 26.1201 35.0387 23.8997 36.0265C23.472 36.2127 22.9967 36.658 22.6164 36.8442C22.5146 36.8927 22.3244 36.8442 22.2837 36.8927C22.243 36.9413 22.2701 37.0789 22.209 37.1599C22.1479 37.2409 21.9917 37.2166 21.9374 37.338C21.8831 37.4595 21.8831 38.2205 21.951 38.3176C22.0189 38.4148 22.1139 38.3419 22.1818 38.4067C22.2497 38.4715 22.2497 38.6496 22.3312 38.7386C22.6436 39.1111 23.051 39.4835 23.4312 39.7426L23.1596 40.3093L22.6911 40.4712L22.8948 40.6736C22.6436 40.6331 22.7115 40.9812 22.4195 40.7546V41.2322L21.9442 41.4103L21.8763 41.888L21.7065 41.7261C21.6047 41.8232 21.5368 41.8961 21.6047 42.0418L21.272 42.1309C21.1837 41.9204 21.401 41.8718 21.401 41.8556C21.401 41.7261 21.2855 41.5965 21.4078 41.4103C20.9732 41.4832 20.8849 41.378 20.593 41.046L20.9325 41.0055L20.8646 40.6817L20.7695 40.8355L20.1244 40.5926L20.2263 40.285L20.1516 40.1231C19.9615 40.2526 19.8596 40.2931 19.6423 40.204C19.6084 40.0664 19.7713 40.1635 19.7849 40.0745C19.8053 39.9126 19.6763 39.783 19.6559 39.6616C19.6152 39.3297 20.0769 38.3743 20.2195 38.0181C21.0072 36.0507 22.3991 34.6663 24.0016 33.5653C25.6041 32.4642 24.0016 33.3548 24.2596 33.4924L24.1917 33.3386C24.246 33.2495 24.8504 33.039 24.9183 32.9904C25.5022 32.5371 25.9843 32.5532 26.6498 32.278C27.3152 32.0027 26.6973 32.1242 26.7448 32.1161C27.1386 32.0756 26.8399 32.108 27.1047 31.9946C27.6615 31.7679 28.4899 31.6546 29.0806 31.517C30.0991 31.2822 31.1109 31.0798 32.1769 30.9988C33.243 30.9178 35.0424 30.9097 35.5109 31.096L35.4905 31.1041Z" fill="#322E2E"/>
<path d="M52.4093 31.7587L52.61 31.6777C52.5131 31.9773 52.6238 32.4147 52.5754 32.69C52.527 32.9654 52.3747 33.1273 52.3471 33.3622C52.3194 33.5971 52.5477 33.7023 52.2294 33.7023L52.0565 34.4393L52.2225 34.3502L52.264 34.5122H52.3955C52.4301 34.1477 52.6307 34.4069 52.7484 34.3988C52.9214 34.3988 53.0528 34.1639 53.295 34.4393C53.3503 34.002 52.9006 34.2368 52.6723 33.9534L53.1566 33.8319L52.7553 33.6942L52.6169 33.103L52.8798 32.9897C52.8106 33.2083 52.8106 33.6294 53.0874 33.6375C53.0251 33.5242 53.0528 33.1516 53.1012 33.0868C53.1497 33.0221 53.5026 33.0949 53.4334 32.8277C53.1704 32.8277 52.7484 32.7629 52.6723 32.4228L53.0459 32.5119C53.1428 32.196 53.295 32.3013 53.1566 32.5847C53.3573 32.6495 53.5787 32.3985 53.7101 32.6252L53.5717 32.8682C53.8623 33.0221 53.8139 33.2326 53.807 33.5566L54.0492 33.6699C53.8277 33.84 54.0215 33.8967 54.0353 34.0101C54.0699 34.2935 53.8831 34.2611 54.3259 34.4474L54.2567 34.7146C54.4297 34.8523 54.5681 35.233 54.4643 35.4921L54.6027 35.4111C54.6649 35.5569 54.6096 35.8808 54.6442 35.978C54.9832 36.9903 55.3153 38.1079 55.5506 39.1769C55.7858 40.2459 55.8758 41.2421 56.1664 42.0681C56.2287 42.2463 56.201 42.4487 56.2217 42.5702C56.2633 42.7808 56.5469 43.048 56.2702 43.1371C56.4362 43.3153 56.4501 44.0927 56.4778 44.1332C56.54 44.2223 56.796 44.2061 56.6715 44.4734C57.0313 44.2952 57.2942 44.4734 57.6056 44.5138C57.9169 44.5543 57.8062 44.4653 57.9308 44.4896C58.4981 44.6191 59.3422 44.8702 59.3007 45.6881L58.9202 45.7691C58.9824 46.3117 58.5258 46.4332 58.4635 46.9758C57.9999 46.8624 58.1037 47.0001 57.8892 47.2268C57.6747 47.4536 57.5364 47.4374 57.5018 47.7128L57.3011 47.6318C57.225 48.1177 57.1489 48.636 57.4395 49.049L57.3011 49.0895C57.2734 49.2191 57.4257 49.13 57.4395 49.2191C57.4741 49.3973 57.3634 49.7617 57.3911 49.8589C57.4533 50.037 57.6332 50.0289 57.6401 50.1099C57.6471 50.1909 57.5848 50.28 57.5917 50.3772C57.6125 50.6039 57.7924 51.2437 57.571 51.1951V51.2761C57.654 51.2761 57.7301 51.3166 57.7647 51.4057C57.7993 51.4948 57.82 52.3127 57.8546 52.5233C57.9031 52.8391 58.2144 53.2117 57.9169 53.5356H58.1245C58.1452 53.5518 58.076 53.7462 58.0899 53.819C58.4151 55.9328 59.0447 58.0708 59.363 60.225C59.6813 62.3792 59.3007 60.4436 59.3146 60.4841C59.3284 60.5246 59.4184 60.4922 59.4599 60.5975C59.6328 61.0267 59.3007 60.9133 59.2246 61.0348C59.1485 61.1563 59.1693 61.3831 59.107 61.5288C58.8579 62.0876 58.3459 62.2334 58.0207 62.5978C57.6955 62.9623 57.9169 62.9218 57.8546 62.9785C57.7924 63.0352 57.7163 62.938 57.6609 62.9542C57.6056 62.9704 57.6678 63.1566 57.5156 63.0109C57.5294 63.6182 57.0174 63.4806 56.7476 63.6992C56.4777 63.9179 56.7061 63.9827 56.6161 64.0799C56.5262 64.177 56.2148 64.1608 56.3324 64.4605L55.5783 64.2094L55.6267 64.0718C55.5644 64.0313 55.4814 64.0232 55.4468 63.926C55.3499 63.6344 55.3292 62.4359 55.2738 62.0228C54.9556 59.7229 54.492 57.3905 54.4643 55.05L54.319 54.9528C54.4089 54.0701 54.1599 53.1712 54.0699 52.2803C53.98 51.3976 54.0561 50.3934 53.7724 49.5349L53.9039 49.5025L53.7586 49.373C53.8001 49.0247 53.8969 48.6522 53.5026 48.555C53.1082 48.4578 52.7899 48.474 52.6169 48.474C51.3161 48.474 49.8493 48.5307 48.5416 48.6198C48.3133 48.636 47.8289 48.6603 47.6421 48.7008C47.4553 48.7413 47.3307 48.9923 47.31 49.049C47.2754 49.1462 47.31 49.2758 47.2892 49.3487C46.798 50.5796 46.0092 52.2803 45.6978 53.5356C45.6563 53.6895 45.6978 53.8838 45.6079 54.0377L45.7809 54.1106L46.2998 53.1793L47.0609 53.2279L46.4797 57.188L45.7255 59.6338C45.3381 61.0429 44.6946 62.4602 43.8228 63.4725C43.4561 63.8936 42.9233 64.663 42.5635 64.995C42.2037 65.327 41.837 65.489 41.7125 65.5781C41.5879 65.6672 41.0828 66.0073 40.9652 66.0397C40.7092 66.1045 39.9689 65.9749 40.0035 65.5295L39.872 65.6105C40.0104 65.3189 39.8582 65.0598 39.872 64.8411C39.9343 63.2619 40.7646 60.8243 41.2351 59.3179C41.2973 59.1236 41.4565 58.2489 41.498 58.176C41.671 57.8926 41.6087 58.176 41.7125 57.7306C41.8163 57.2852 41.9754 57.2123 42.0723 56.9856C42.1691 56.7588 42.1899 56.2648 42.2798 56.0137C42.4044 55.6493 42.7572 55.1148 42.8887 54.7909C43.0686 54.3535 43.0894 53.819 43.4699 53.4465C43.0409 53.2036 43.5806 53.2926 43.6083 53.244C43.6083 53.155 43.546 53.0578 43.5599 52.9768C43.5737 52.8958 43.8435 52.2236 43.892 52.1022C43.9404 51.9807 44.0373 52.005 44.0788 51.8997C44.148 51.7296 44.1964 51.4219 44.231 51.2275L44.3694 51.3085C44.2725 50.8631 44.6461 50.7092 44.6254 50.3367L45.1305 49.3244C44.6877 49.1138 44.2102 49.0895 43.8366 48.7008C43.7951 48.6198 43.9542 47.8099 44.0027 47.7452C44.1549 47.5427 44.6046 47.4779 44.6461 47.4212C44.7845 47.2592 44.3555 47.2349 44.3002 47.0568C44.487 46.992 44.4386 46.9029 44.4455 46.7004C44.8745 46.7733 44.8468 46.3198 45.0267 46.1174C45.2066 45.9149 45.774 45.7691 45.8916 45.68C46.0092 45.591 45.9954 45.3804 46.0784 45.3075C46.1891 45.2103 46.5351 45.186 46.6734 45.0726C46.881 44.9107 46.8049 44.611 46.8741 44.4005C47.1993 43.4448 47.5452 42.5864 47.8635 41.5903C48.1818 40.5942 47.9811 41.3392 48.0365 41.2016C48.1264 40.9667 47.9535 40.7399 48.3133 40.578L48.1749 40.4565C48.4516 40.4565 48.3409 40.0678 48.3824 39.8653C48.424 39.6628 48.5208 39.8086 48.5554 39.6466C48.7561 38.7153 49.2888 37.6301 49.5794 36.6502C49.87 35.6703 49.7317 35.816 49.8285 35.4354L49.4826 35.233C49.8977 34.9414 49.6556 34.9738 49.704 34.6903C49.787 34.1396 50.555 33.3622 50.555 32.8439C50.9563 32.7305 50.8595 32.4552 50.9494 32.2932C51.0394 32.1312 51.1847 32.2284 51.2815 32.1474C51.4545 32.0016 51.586 31.5238 51.9388 31.7101L51.9042 31.5481C52.0288 31.4995 52.0772 31.6858 52.1464 31.6858C52.2156 31.6858 52.2848 31.37 52.3955 31.7911L52.4093 31.7587ZM52.2571 34.99C52.2364 35.0143 51.9458 34.6742 51.8074 35.0791C51.669 35.484 51.8627 35.3139 51.8351 35.3868C50.7418 38.2699 50.0569 41.5984 49.0052 44.4815C48.9844 44.5462 48.7492 44.6515 48.9844 44.854C49.3511 44.7082 49.9116 44.9026 50.2229 44.854C50.5343 44.8054 51.0324 44.6596 51.3992 44.6272C52.008 44.5705 52.6308 44.692 53.2258 44.4572C53.2881 44.117 52.9559 43.372 53.0874 43.1695L53.2258 43.0885L52.9767 43.0075C53.0321 42.6674 52.9421 42.3191 52.9075 41.979C52.8729 41.6389 52.8798 41.7846 52.8176 41.566C52.7553 41.3473 52.6515 40.991 52.8868 40.8614L52.6792 40.6994L52.8868 40.3755L52.61 40.416L52.5408 40.0921H52.7484V39.8572L52.4716 39.7681C52.4924 39.509 52.8037 39.7681 52.8176 39.6466C52.866 39.2984 52.6377 39.6385 52.4716 39.3227L52.9559 39.0797L52.5408 39.1202L52.4647 38.6829C52.8383 38.4886 52.4232 38.5128 52.4647 38.3509C52.52 38.1565 52.7761 38.3509 52.8106 38.3104V38.1079L52.6792 38.035L52.7415 37.6625H52.3955L52.6031 37.2981C52.4855 37.1118 52.2848 37.1847 52.1187 37.1766L52.1533 37.0146C52.3471 37.2009 52.4716 36.9093 52.6723 36.9336L52.6377 36.7717L52.3955 36.8527L52.3332 36.3182C52.7207 36.2048 52.2294 35.3625 52.2571 35.3139C52.2848 35.2653 52.4993 35.2896 52.4716 35.1115L52.2917 34.828L52.2502 34.9819L52.2571 34.99Z" fill="#322E2E"/>
<path d="M83.0264 1.25665C83.0536 1.31209 83.2782 1.41505 83.1966 1.58928L83.074 1.6764C83.2578 1.6764 83.394 2.04863 83.1421 1.99319L83.2783 2.11198L83.1421 2.19118L83.3123 2.38125C83.1897 2.87228 83.2442 3.41082 83.2442 3.93352C83.2442 4.45622 83.3191 4.4483 83.3123 4.47998C83.3123 4.55126 83.1557 5.01852 83.1625 5.11356C83.1693 5.2086 83.2783 5.31155 83.2783 5.43035C83.2783 5.54914 83.1625 5.46203 83.1217 5.58082C82.9991 6.01641 83.1897 6.42031 83.2034 6.6975C83.217 6.97469 83.0944 6.72918 83.0672 6.80046C83.0196 6.91926 82.9447 7.59243 83.1353 7.56867L82.9242 8.28145L83.0672 8.36065C82.8562 8.622 83.0672 8.69327 83.0536 8.81999C83.0332 9.00214 82.6587 9.59612 82.9991 9.707C82.7609 9.88123 83.0127 10.1188 82.9991 10.1426C82.9855 10.1663 82.8902 10.1267 82.8698 10.1822C82.8494 10.2376 82.9242 10.4119 82.9174 10.5069C82.9038 10.9425 82.7881 11.5365 82.9923 11.8849C82.7677 11.8295 82.9106 12.3997 82.9174 12.6452C82.9379 13.8965 82.8834 15.1637 82.9447 16.4942C82.9447 16.5496 83.04 16.613 83.04 16.6684C83.04 16.7556 82.7745 17.4762 83.0604 17.4208V17.5396L82.9242 17.6188C83.1285 17.896 82.9447 17.9435 82.9447 18.1098C82.9379 18.4504 83.0059 18.9652 82.9719 19.2661C82.9379 19.5671 82.7064 19.5116 82.9923 19.5908V19.7492C82.7336 19.8284 82.9038 19.971 82.9106 20.1452C82.9174 20.3194 82.8085 20.169 82.7745 20.2878C82.6928 20.5887 82.5838 21.452 82.4 21.6103C82.2162 21.7687 82.2298 21.6103 82.1686 21.745C82.1073 21.8796 82.1822 22.1964 82.1686 22.2281C82.1549 22.2598 81.9916 22.2914 81.9099 22.4498C81.8282 22.6082 81.8077 22.7666 81.7737 22.8537C81.7192 23.0121 81.7601 23.1151 81.6307 23.3131C81.5014 23.5111 81.1678 23.614 81.1474 23.6378C80.9908 23.8516 80.8138 24.5565 80.6436 24.699C80.3577 24.9445 80.1534 24.8178 79.9015 24.8495C79.6496 24.8812 79.6837 24.9841 79.6088 24.9921C79.4318 25.0158 79.4114 24.7386 79.3433 24.6119C79.2752 24.4852 79.0982 24.5961 79.2412 24.3031C78.9008 24.2318 79.0778 23.8675 79.0369 23.717C78.9961 23.5665 78.8395 23.5665 78.7578 23.4002C78.6761 23.2339 78.7101 22.925 78.6693 22.7983C78.5944 22.5766 78.4242 22.3073 78.3357 22.0776C78.2472 21.8479 78.3153 21.5549 78.043 21.5945L77.7843 20.7313L77.5528 20.8105L77.757 20.5333C77.6073 20.3511 77.5732 20.1214 77.4847 19.9155C77.3962 19.7096 77.3894 19.6859 77.3213 19.5195C77.2533 19.3532 77.1103 18.8543 76.872 18.9097C76.9129 18.7988 76.9537 18.7276 76.9061 18.6009C76.7835 18.2761 76.1912 17.2545 75.987 16.8981C75.6126 16.2487 75.0611 15.7339 74.8297 15.037C74.5165 15.1954 74.639 14.7519 74.6254 14.7281C74.571 14.6251 74.3123 14.641 74.2986 14.6251C74.251 14.5539 74.2646 14.3163 74.1148 14.245L73.9719 15.1558C74.1625 16.2724 74.0467 17.4366 74.0195 18.5692C74.0059 19.1869 74.0331 19.6621 73.9991 20.2244C73.965 20.7867 73.9446 21.4282 73.8902 21.5787C73.8357 21.7291 73.7336 21.6975 73.7404 21.7291C73.7472 21.84 73.8561 21.9113 73.8561 21.9667C73.8561 22.141 73.5634 22.6399 73.3387 22.4023L73.4068 22.6716C73.1413 22.7666 73.2979 22.9884 73.2502 23.0913C73.2026 23.1943 72.8349 23.4715 72.8213 23.5032C72.7873 23.5824 72.8826 23.7011 72.8485 23.8041C72.8145 23.9071 72.6375 23.9387 72.6239 24.0575L72.5558 23.8991L72.4877 24.0575H72.3175L72.3788 23.9071L72.1201 23.6932L72.3243 23.4952L72.1201 23.3764C72.2903 23.1151 72.1814 23.1468 72.1541 22.9646C72.1269 22.7825 72.1814 22.8458 72.1678 22.7983C72.1541 22.7508 72.0044 22.7983 72.052 22.5845C72.0997 22.3706 72.195 22.5449 72.195 22.5053C72.195 22.3944 72.0316 22.0855 72.018 21.9509C71.9567 21.4361 71.9431 20.85 71.8818 20.3194C71.8206 19.773 71.7933 19.1552 71.7116 18.6325C71.6299 18.1098 71.6504 18.4583 71.5755 18.3949L71.7116 18.3553C71.8001 18.1653 71.5755 18.2128 71.5755 18.1573C71.5619 17.9831 71.7184 17.8881 71.7048 17.7772C71.6912 17.6663 71.5619 17.5238 71.5278 17.3495C71.3372 16.3279 71.4257 14.8311 71.167 13.8253C70.9083 12.8195 70.9628 13.2471 70.9151 12.9145C70.8879 12.7007 70.956 12.3918 70.8947 12.17C70.8334 11.9483 70.8266 12.17 70.8062 11.679C70.7858 11.188 70.5815 11.1009 70.5883 11.0375C70.5883 10.9266 70.9015 10.7207 70.4249 10.6811C70.6632 10.4515 70.3228 10.1109 70.6292 10.0079C70.2003 9.79412 70.5815 9.16846 70.2207 9.01798L70.5475 8.6616C70.4113 8.4636 70.3841 7.77459 70.5203 7.59243C70.6564 7.41028 70.7994 7.53699 70.8266 7.51324C70.8538 7.48948 70.8266 7.16477 70.8606 7.03805C70.9491 6.61831 71.2964 6.254 71.6504 6.1748C71.4802 5.63626 71.8001 5.03436 72.2971 5.38283L72.3924 5.26403L72.3448 5.08188C72.4129 4.92349 73.0596 4.96309 73.2366 4.92349C73.4817 5.05812 73.5498 5.43827 73.6655 5.62042C75.0543 7.85378 77.2124 9.33477 78.7306 11.5206C78.8259 11.6553 79.1663 12.5423 79.4114 12.273C79.6564 12.0037 79.1867 12.0037 79.2752 11.877C79.3909 11.8453 79.5067 11.8136 79.4794 11.6394L79.2752 11.5998C79.4386 10.7603 79.3501 9.84163 79.4454 9.01006C79.4794 8.72495 79.425 8.47152 79.6905 8.36065V8.21017C79.6701 8.12306 79.3705 8.18641 79.5271 7.71123C79.6837 7.23604 79.6428 7.63203 79.6701 7.57659C79.7381 7.41028 79.2344 7.02221 79.6564 7.05389L79.6905 6.90342H79.4931C79.4794 6.87174 79.4726 6.66583 79.4862 6.62623C79.5135 6.52327 79.7313 6.68167 79.6905 6.46783C79.6496 6.254 79.5339 6.36488 79.459 6.18272C79.3297 5.85801 79.4863 5.6521 79.4726 5.5333C79.4318 5.25611 79.0846 4.82845 79.6905 4.84429C79.7109 4.41662 79.4114 3.99688 79.6224 3.56129C79.8335 3.12571 79.9151 3.46626 79.956 3.41082C79.9968 3.35538 80.0581 2.58717 80.2283 2.36541C80.3985 2.14366 80.453 2.34165 80.5823 2.1991C80.7117 2.05654 80.6436 1.92983 80.6844 1.83479C80.7253 1.73976 80.8138 1.77144 80.8274 1.73976C80.8683 1.65264 80.8478 1.39921 80.9568 1.20913C81.1542 0.860666 81.3584 1.01114 81.6103 0.884427C81.8622 0.757712 81.6716 0.726033 81.7873 0.686434C82.1345 0.575558 82.6315 0.50428 82.8902 0.844829C83.1489 1.18538 82.9787 1.12202 83.0468 1.25665H83.0264Z" fill="#322E2E"/>
<path d="M75.7052 29.1977C75.7185 29.2138 75.8511 29.5676 75.7782 29.5917H75.9771L75.9108 29.3103L76.0434 29.2701C76.0169 29.4872 76.1429 29.3505 76.2092 29.4228C76.2755 29.4952 76.302 29.6399 76.375 29.7043C76.4479 29.7686 76.6535 29.7847 76.6933 29.849C76.8988 30.1867 76.6137 30.9506 76.5408 31.2722C76.4678 31.5938 76.3551 32.0843 76.2225 32.5024C75.3472 35.2845 74.7106 38.3078 73.8353 41.098C73.6894 41.5643 73.5435 41.5724 73.4639 41.7332C73.3844 41.894 73.5568 41.9824 73.4639 42.1513C73.3711 42.3202 73.2451 42.2237 73.1854 42.3362C73.1257 42.4488 73.1125 42.7704 73.0462 42.9473C72.8804 43.3735 72.3565 43.8801 72.0913 44.2339C71.5144 45.0058 70.9707 45.9626 70.0821 46.2119C70.0224 46.4772 70.2213 46.437 70.281 46.6541L70.1484 46.8069C70.354 46.9838 70.2213 47.2974 70.2412 47.5708C70.2611 47.8441 70.4932 47.8924 70.1484 48.1738C70.3274 48.1256 70.3473 48.9377 70.3407 48.9779C70.2346 49.4362 70.2943 49.195 70.3142 49.6935C70.3341 50.192 70.354 50.6021 70.3407 50.6504C70.3075 50.779 70.1418 50.7549 70.1484 50.8192L70.2877 50.9077C70.2545 51.1167 70.228 51.366 70.2412 51.575C70.3407 53.0626 70.3208 54.5501 70.4866 56.0216C70.6524 57.493 70.8977 58.4579 70.838 58.5624C70.7518 58.7232 70.5662 58.6268 70.5131 58.7152C70.4601 58.8036 70.4136 59.1574 70.3274 59.262C70.2412 59.3665 70.1152 59.2781 70.0887 59.3022C70.0423 59.3424 69.9826 59.5916 69.8765 59.6399L70.0091 59.6801L69.9097 59.8409C69.5848 59.455 69.4654 60.0982 69.0808 59.9213L69.0145 60.4038L68.915 60.2429C68.7095 60.2269 69.0079 60.4761 68.7492 60.4038L68.7161 60.2429C68.5238 60.5404 68.2254 60.444 67.9535 60.4842L68.2851 60.6048C68.0994 60.8138 67.7811 60.6369 67.7546 61.047L67.4893 60.8862C67.423 60.9827 67.5557 61.3445 67.3899 61.2882C67.0185 61.1435 66.7334 60.9264 66.7599 60.4038L66.6273 60.4842L66.561 60.2831L66.7533 60.1545C66.5345 59.8489 66.74 59.664 66.74 59.4952C66.74 59.2057 66.6406 58.8439 66.6936 58.5222L66.561 58.4338L66.7002 58.3453C66.7002 58.2408 66.6339 58.1282 66.6406 58.0317C66.74 55.7723 66.813 53.5048 67.0252 51.2856C67.0915 50.578 67.1909 49.9186 67.2705 49.2593C67.3501 48.6 67.37 48.1095 67.4827 47.5547C67.3368 47.6592 67.2374 47.6431 67.0848 47.6029C66.6472 47.4903 65.7122 46.5415 65.3873 46.1636C65.0624 45.7857 64.7308 45.255 64.4258 44.8449L64.3064 44.9093L64.3727 44.5876C64.0876 44.6439 64.1473 44.3625 64.0412 44.2258C63.9351 44.0891 63.8223 44.0328 63.7361 43.9203C63.6499 43.8077 63.6831 43.7032 63.6102 43.6228C63.4842 43.4861 63.5704 43.8157 63.4179 43.3815C63.1858 42.7222 62.3237 41.2588 61.9524 40.6557C61.833 40.4627 61.8529 40.117 61.581 40.1813L61.7137 39.9803C61.3887 39.7069 61.2429 39.1199 61.0439 38.7099C60.6129 37.8334 60.0559 36.965 59.7177 35.9841C59.3795 35.0031 59.5519 35.3167 59.5586 35.2845C59.5652 35.2524 59.7575 34.8182 59.7708 34.8021C60.0029 34.585 60.162 34.9066 60.3344 34.384C60.5068 33.8613 60.3211 34.1749 60.3543 34.0945C60.4073 33.9739 61.0108 33.1216 60.9842 33.604H61.0506C61.0903 33.1698 61.3291 33.3708 61.4551 33.3145C61.5811 33.2583 61.7137 32.9045 61.8927 32.8884C62.0718 32.8723 62.0452 33.0492 62.1115 33.0733C62.1778 33.0974 62.2972 33.001 62.4431 33.0733C62.589 33.1457 63.146 34.1186 63.2388 34.2794C64.7971 36.8766 66.3554 39.9723 68.3182 42.2156C68.5304 42.4649 68.8686 43.1001 69.2267 42.9875L69.6378 41.3794C69.903 41.2668 69.8102 40.8969 69.8832 40.6155C70.2943 39.0556 70.7585 37.3027 71.1563 35.6705C71.2425 35.3328 71.3022 34.8021 71.4547 34.5206C71.6072 34.2392 71.7067 34.5367 71.4547 34.2633C71.7332 34.1427 71.5807 33.7568 71.5873 33.5477C71.594 33.3387 71.6868 33.4995 71.72 33.4432C71.7995 33.2824 71.8327 33.0974 71.9852 32.9768L71.72 32.8964C72.078 32.7276 72.0117 32.2692 72.1576 31.9798C72.2239 31.8511 72.4427 31.8672 72.3234 31.5054C72.4229 31.425 72.7809 31.3767 72.834 31.3204C72.887 31.2642 72.9732 30.6611 73.1523 30.452C73.3313 30.243 73.5568 30.436 73.7093 30.3314C73.8618 30.2269 73.9679 29.8249 74.1934 29.7123C74.4188 29.5997 74.631 29.8329 74.8631 29.648L74.9626 29.8088C74.9825 29.656 75.1416 29.2701 75.2344 29.2057C75.3273 29.1414 75.6721 29.1575 75.692 29.1736L75.7052 29.1977Z" fill="#322E2E"/>
<path d="M30.5229 11.8703C30.5634 12.1135 30.6713 12.308 30.705 12.7295C30.7388 13.151 30.9883 12.924 30.705 13.0618C30.9276 14.1318 31.1299 15.2747 31.3053 16.3933C31.6964 18.8331 31.946 21.2162 32.3372 23.6561C32.3844 23.9641 32.7553 25.3826 32.7283 25.5285C32.7013 25.6744 32.6204 25.5771 32.6137 25.6015L32.6609 25.7474H32.3911C32.5125 26.0959 32.2158 26.2823 32.1213 26.4526C32.0269 26.6228 32.0876 26.7282 32.0404 26.7849C31.9932 26.8416 31.7099 26.8903 31.5818 27.0119C31.4537 27.1334 31.4604 27.255 31.4334 27.2793C31.366 27.328 31.2446 27.2712 31.1906 27.3037C31.0962 27.3766 31.1906 27.9116 30.8399 27.7008L30.8939 27.8468L30.5364 28.3493L30.4015 28.1872C30.152 28.3655 29.9699 28.5763 29.7608 28.7951C29.6867 28.8681 29.545 28.8924 29.5113 28.9329C29.4776 28.9735 29.572 29.1031 29.4641 29.1599C29.3764 29.0383 28.6413 28.8843 28.6278 28.7222C28.6143 28.5601 28.7425 28.5114 28.729 28.3979C28.7155 28.2845 28.6008 28.2115 28.5739 28.0656C28.4794 27.4577 28.5941 26.8173 28.3445 26.258C28.1894 26.2661 28.3715 26.566 28.1827 26.5012C27.8455 26.3229 27.5285 26.2418 27.2722 25.8933C27.0159 25.5447 27.1778 25.4637 27.1103 25.3259C26.5641 24.2397 25.6468 23.0319 24.9117 22.0998C24.1766 21.1676 24.4801 21.5729 24.4059 21.5729L24.1698 21.8971L24.3587 22.0106C24.244 23.2832 24.4801 24.5072 24.4801 25.7879C24.1159 25.8446 24.2845 26.0959 24.1698 26.3634C24.0552 26.6309 24.035 26.4769 23.981 26.5579C23.7652 26.9065 23.7517 27.0524 23.2931 27.0767C23.4819 27.3604 23.1177 27.4739 22.9626 27.6198C22.7333 27.8386 22.1938 28.1061 22.16 28.1467C22.1263 28.1872 22.2005 28.2683 22.1533 28.3331C21.9847 28.5763 21.7082 28.8357 21.4249 28.8357C21.1417 28.8357 21.0338 28.6979 21.0135 28.6735C20.9258 28.5682 20.7775 27.4577 20.791 27.2875C20.8045 27.1172 20.9124 27.2712 20.9326 27.1172C21.0675 25.9581 20.9865 24.4342 21.0607 23.2346C21.0742 23.04 21.2698 22.3591 21.2631 22.2619C21.2563 22.1646 21.1484 22.2132 21.1214 22.1565C20.9596 21.8242 21.1552 21.1838 21.1619 20.8839C21.1686 20.584 20.9528 20.1301 21.1889 20.0733C21.1956 20.0004 21.0945 20.0571 21.0675 20.0166C21.0405 19.9761 21.1552 19.0439 21.1552 18.8494C21.1552 18.6548 21.0472 18.5738 21.054 18.4441C21.0607 18.3144 21.3103 18.1766 21.054 17.9577L21.2563 17.8361C21.1147 17.5686 21.0607 17.4471 21.2563 17.1958C20.9528 17.1796 21.1552 16.7094 21.1147 16.523C21.0742 16.3366 20.8989 16.2393 20.8517 16.1015L20.9865 16.061L20.8517 15.8178L21.027 15.7367L20.9865 15.4044L20.8179 15.7286L20.5819 15.3639L20.7168 15.3233V15.1612C20.4133 15.218 20.2177 14.9424 20.3121 14.5938H19.84C19.8198 14.3993 19.9749 14.2858 20.1098 14.2696C20.0289 14.0264 19.84 13.9454 19.6377 13.9454C19.7389 13.532 20.0491 13.532 19.9075 13.0537L20.5819 12.9727L20.447 12.77L20.6426 12.6403L20.5886 12.2513C20.8584 12.2675 20.9326 11.9919 21.0877 11.9027C21.2428 11.8135 21.8026 11.8541 21.951 11.9189C22.0994 11.9838 22.0319 12.0891 22.0724 12.1054C22.214 12.1783 22.3961 12.2188 22.5377 12.3242L22.7805 11.8379H22.8749L22.9087 12C23.0503 11.8946 23.1852 11.8135 23.347 11.8784C23.7247 12.0243 24.0889 13.1024 24.2171 13.5239L23.8933 13.9129C23.8394 14.2777 24.5475 14.8208 24.7431 15.0721C24.9387 15.3233 25.1006 15.6557 25.2489 15.8421C25.5254 16.1745 27.4138 18.3549 27.569 18.3225C27.7241 18.2901 27.6566 17.6254 27.6364 17.4714C27.6027 17.1471 27.5959 16.9688 27.5824 16.6851C27.5487 16.0691 27.3531 15.3396 27.6027 14.764H27.4003L27.5352 13.5077C27.225 13.6049 27.5487 13.2483 27.5352 13.1024C27.3396 13.0294 27.4476 12.3647 27.4273 12.0486C27.4071 11.7325 27.3262 11.927 27.4408 11.4569C27.5555 10.9868 27.4408 11.1975 27.4678 11.1327C27.4948 11.0678 27.751 11.0192 27.8657 10.8328C27.9804 10.6463 28.0748 10.314 28.1962 10.0789C28.3176 9.84385 28.1759 9.90059 28.2097 9.83574C28.2434 9.7709 28.8369 9.45477 28.9178 9.38993C28.9987 9.32508 29.1876 8.97653 29.3225 8.936C29.4573 8.89548 29.5248 9.05759 29.5787 9.06569C29.6327 9.0738 29.7069 8.91169 29.8418 8.9279C30.0643 8.94411 30.3611 9.56015 30.4015 9.80332C30.4825 10.3464 30.4218 11.3677 30.5095 11.9108L30.5229 11.8703Z" fill="#322E2E"/>
<path d="M62.9142 9.43956C63.6355 10.2565 64.4513 11.6502 65.0918 12.6514C65.7323 13.6525 65.557 13.22 65.5907 13.3242C65.6244 13.4283 65.5368 13.5324 65.5637 13.5564C65.5907 13.5805 65.712 13.5564 65.7997 13.6445C65.8873 13.7326 65.975 14.1331 66.0559 14.2613C66.1368 14.3894 66.2244 14.3654 66.3053 14.4855C66.5413 14.854 66.6559 15.3185 67.0806 15.3345C67.7279 15.3586 68.0852 15.1984 68.7863 15.4627C69.4875 15.727 69.4875 15.8071 69.4605 16.1515C69.4336 16.4959 69.2583 16.7042 69.2313 16.7602C69.2043 16.8163 68.8875 17.2568 68.8605 17.2808C68.638 17.5211 68.2537 17.4651 68.4627 18.1218L68.5841 18.0578C68.8335 18.8507 69.292 19.4915 69.6156 20.2283C69.919 20.9171 70.6269 22.5991 70.7347 23.304C70.8426 24.0088 70.7145 23.5202 70.6876 23.6404L70.8157 23.7285H70.4853C70.4853 23.7365 70.4111 24.4493 70.4111 24.4493H70.1415C70.2898 24.8658 69.9325 24.8258 69.6695 24.8498L69.8044 24.9699L69.4673 25.2102L69.6695 25.3304H69.3324L69.265 25.891L68.9953 25.5706L69.0628 25.9711L68.9279 25.8109C68.874 26.4997 68.4627 26.3636 68.1661 26.6039C67.8694 26.8442 68.1054 26.8361 68.038 26.9082C67.8694 27.0844 67.4043 27.2126 67.175 27.1325C66.784 26.9883 66.7773 25.9711 66.6761 25.5706C66.1772 23.6243 65.3952 22.2788 64.7412 20.5087C64.6536 20.2764 64.7884 20.0601 64.33 19.9961L61.977 20.5567L61.5927 21.0213L61.768 21.3016C61.6062 21.5739 61.822 21.8623 61.5253 22.1025L61.6602 22.1826C61.5253 22.463 61.5388 22.8074 61.5051 23.1197C61.4714 23.4321 61.5051 24.3532 61.4579 24.5615C61.4107 24.7697 61.3298 24.6095 61.3231 24.6656C61.2759 25.0981 61.3028 25.2102 61.1006 25.6748C60.8983 26.1393 60.5612 26.3556 60.1837 26.8281C59.8061 27.3007 59.8264 27.3407 59.8399 27.573C59.55 27.3568 59.5702 27.6371 59.4825 27.7092C59.1859 27.9415 59.2196 27.9735 58.9971 28.2218C58.7746 28.4701 58.4241 28.6463 58.0667 28.5261C57.7094 28.406 57.9386 28.2138 57.9252 28.0376C57.8645 27.3087 57.9386 27.0764 58.0802 26.3396C58.3027 25.1702 58.5521 23.8726 58.7072 22.6071C58.714 22.527 58.8421 22.4389 58.8286 22.3508L57.8308 22.0465C57.8173 21.8062 57.6487 21.0133 57.7633 20.8771C57.878 20.7409 58.0398 20.789 58.1746 20.5407C58.3094 20.2924 58.0465 20.2684 58.0195 20.1723C57.9454 19.9079 58.3769 19.6917 58.4915 19.5395C58.6196 19.3633 58.7612 18.9548 58.9162 18.8026C59.0713 18.6505 59.2668 18.6665 59.3005 18.5624C59.3747 18.3221 59.4488 17.4971 59.4825 17.1927C59.5702 16.2797 59.6039 15.3265 59.6713 14.4215C59.705 14.005 59.6915 13.3722 59.7387 13.0198C59.8061 12.5152 60.0893 12.5953 60.1163 12.4912C60.1904 12.1468 60.0489 11.8825 60.1163 11.5861L59.8466 11.5461C59.9342 11.3138 60.2713 11.0415 60.3388 10.8412C60.4062 10.641 60.305 10.5689 60.3388 10.4808C60.3725 10.3927 60.5882 10.3046 60.5882 10.2485C60.5882 10.1925 60.514 10.0963 60.5545 9.9762C60.5949 9.85606 60.7635 9.88009 60.7972 9.85606C60.8309 9.83203 60.9927 9.59174 61.168 9.42355C61.3433 9.25535 61.3837 9.01506 61.7748 8.94298C62.1658 8.87089 62.5703 9.03909 62.9276 9.44757L62.9142 9.43956ZM62.3074 15.751C62.395 15.9433 62.1995 16.0314 62.1523 16.1755C61.9164 16.9364 62.6917 16.6881 62.7254 16.4959C62.7591 16.3037 62.4894 16.0394 62.4355 15.9032C62.3815 15.767 62.4962 15.4787 62.2602 15.6229C62.0242 15.767 62.3074 15.751 62.3074 15.759V15.751Z" fill="#322E2E"/>
<path d="M43.5181 9.15583C43.5113 9.18015 43.4028 9.18826 43.3825 9.27744C43.3283 9.4639 43.3486 9.48822 43.274 9.72332C43.0978 10.2746 42.9418 10.8421 42.7995 11.4015C42.1622 12.1311 41.3622 12.6499 40.5622 13.0229L40.4944 13.2174C40.2436 13.1445 40.2639 12.577 40.4944 12.5689L40.3724 12.2608C40.3792 12.2446 40.4741 12.2608 40.4944 12.1959C40.5893 11.7906 40.1283 11.1015 39.7554 11.1177C39.6944 11.3771 39.5995 11.669 39.4978 11.9041C39.3961 12.1392 39.3554 12.0095 39.3554 12.0176C39.3419 12.0581 39.4165 12.1878 39.4097 12.2851C39.3961 12.4716 39.2673 12.6094 39.2334 12.7878C39.1724 13.1201 39.1724 13.7768 39.3419 14.0524C39.5114 14.3281 39.6876 14.4902 39.7148 14.5145C40.4605 15.2766 41.6198 15.8522 42.4062 16.6143C43.9927 18.1546 45.5791 20.3921 45.1587 23.0431C45.057 23.6916 44.9282 23.6106 44.7791 23.9267C44.6299 24.2429 44.7791 24.1618 44.7452 24.2105C44.7113 24.2591 44.5215 24.2591 44.4401 24.4132C44.3249 24.6321 44.2299 24.932 44.0469 25.1995C43.6198 25.8319 43.1995 25.9292 42.7249 26.3751C42.2503 26.8209 42.291 26.9993 42.1283 27.1452C41.7486 27.4695 41.152 27.656 40.7385 27.9559C40.3249 28.2559 40.7656 28.1343 40.4131 28.0694L40.3385 28.3532C40.0198 28.2234 39.5724 28.5639 39.3012 28.5639C38.9893 28.5639 38.6978 28.3532 38.3995 28.264C38.2368 27.7857 38.5622 27.3074 38.3182 26.902C38.569 26.8615 39.0775 26.8696 39.0571 26.4561C39.0368 26.0427 38.8334 26.0832 39.1317 25.7265C39.43 25.3698 39.4978 25.5887 39.647 25.4509C39.8842 25.2239 40.0402 24.6564 40.4876 24.6321V24.4375C40.2571 24.3321 40.3385 23.9997 40.2503 23.7565C40.0537 23.2214 39.7283 22.654 39.4504 22.2C39.4097 22.1351 39.4029 22.0459 39.4097 21.9649L39.2063 22.0459C39.2199 21.673 38.9554 21.6082 38.8673 21.3163L38.7317 21.4784C38.8131 21.0731 38.3724 20.8866 38.169 20.6758C37.525 20.003 36.6368 19.2571 35.9046 18.641C35.7894 18.5437 35.4369 18.487 35.4233 18.4626C35.3758 18.4059 35.3962 18.2438 35.3284 18.1789C35.0843 17.9276 34.9487 17.9114 34.7521 17.4493C34.5555 16.9872 34.3657 16.4845 34.7318 16.4602L34.5284 16.2981C34.4674 16.0954 34.6437 16.1684 34.664 16.0792C34.7589 15.6576 34.5826 15.3577 34.5962 15.3252C34.6098 15.2928 34.6911 15.3333 34.7047 15.309C34.7182 15.2847 34.7047 15.0982 34.7386 14.9847C34.7725 14.8713 34.8742 14.8145 34.9013 14.7578C34.9284 14.701 34.6979 14.3605 35.1318 14.1497L34.9962 14.0281C35.2335 14.0281 35.1453 13.5417 35.2199 13.3228C35.2945 13.1039 35.5589 12.9985 35.6064 12.9175C35.6538 12.8364 35.6064 12.7148 35.6267 12.6743C36.4809 11.142 37.6673 9.52065 38.969 8.45863C40.2707 7.39662 40.6436 7.20205 41.1249 7.1453C41.4164 7.11288 41.7283 7.2588 41.9385 7.28312C42.1486 7.30744 42.1215 7.1372 42.4605 7.33987C42.7995 7.54254 43.7622 8.46674 43.5045 9.16394L43.5181 9.15583Z" fill="#322E2E"/>
<path d="M13.0965 6.05916C13.0965 6.07557 12.9813 6.07558 12.9813 6.11662C12.9745 6.27259 13.144 6.41214 13.1711 6.54349C13.2796 7.06065 12.8661 7.28229 12.7847 7.67632C12.6424 8.34125 12.7034 9.49871 12.6763 10.2129C12.6491 10.9271 12.5746 11.3704 12.5746 11.8465C12.5746 12.3226 12.5746 13.1024 12.5881 13.1599C12.6017 13.2174 12.7237 13.1599 12.7169 13.242L12.5881 13.3241C12.5542 13.8413 12.7441 14.5883 12.7102 15.0562C12.6763 15.5241 12.6491 15.2286 12.5814 15.2942C12.7779 15.3599 12.7915 15.6062 12.5814 15.5816L12.7034 15.7047C12.744 15.9592 12.5407 15.8771 12.5814 16.1151C12.622 16.3532 12.7373 16.1644 12.7576 16.3122C12.7779 16.4599 12.5881 16.6323 12.7847 16.8539L12.5814 16.895C12.5678 17.1905 12.6898 17.4614 12.7169 17.7569C12.7441 18.0524 12.6085 18.3644 12.7847 18.6599L12.5814 18.701L12.7712 18.9883L12.5881 19.2756C12.8254 19.3084 12.8728 19.6696 12.5881 19.686C12.5678 19.8092 12.6763 19.7435 12.7237 19.8256C12.9067 20.1293 12.6763 20.0719 12.5881 20.2607L12.7915 20.3099L12.7508 21.5002C12.961 22.0584 12.7034 23.3144 12.9406 23.8234C13.1779 24.3323 12.9813 23.9547 13.083 23.9465C13.3135 23.9383 13.849 23.7248 14.1269 23.651C15.2251 23.3636 16.4249 23.0435 17.4553 22.7398C17.984 22.5838 18.1128 22.6495 18.5941 22.6413C18.811 22.6413 19.2381 22.436 19.333 22.7233L19.5025 22.6495L19.638 23.2241L19.2991 23.3062C19.516 23.7084 19.1025 23.9547 19.0415 24.1845C18.9805 24.4144 19.0415 24.4965 19.0212 24.5293C19.0008 24.5622 18.6483 24.5622 18.5263 24.6935C18.4043 24.8248 18.4857 24.9069 18.4111 24.9808C18.2213 25.1778 18.262 25.1696 18.1264 25.3338C17.9908 25.498 17.6722 25.539 17.6112 25.6129C17.5502 25.6868 17.6451 25.7525 17.6112 25.8181C17.4824 26.1301 17.2587 26.1219 17.0553 26.3025C16.852 26.4831 16.9401 26.5651 16.8045 26.6637C16.6689 26.7622 16.5944 26.6637 16.5876 26.6801C16.5401 26.7293 16.5402 26.9592 16.5063 26.992C16.4724 27.0248 16.3842 26.9345 16.3097 26.951C15.2793 27.0905 13.1914 27.2629 12.2899 27.6734C11.9713 27.8211 11.7815 28.0345 11.7611 28.4696L11.5578 28.3875V28.5928C11.3408 28.5353 11.3883 28.642 11.2188 28.7159L11.3544 28.8801C11.1578 29.1099 11.0629 28.9047 10.8799 29.0032C10.6969 29.1017 10.2766 29.6271 10.3376 29.7831L10.1071 29.6928C10.0664 29.6928 10.0732 29.8241 10.0529 29.8405C9.84275 29.9883 9.73429 29.6435 9.71395 29.6353C9.65294 29.6025 9.52414 29.7584 9.46313 29.5778C9.59871 29.2905 9.40891 29.2987 9.39535 29.2331C9.26655 28.6092 9.49025 28.1741 8.71069 28.4286C7.09735 28.9622 5.55858 29.5532 3.91812 30.0868C3.78254 30.136 3.60629 29.9883 3.45716 30.2674L3.32837 30.1114C2.99621 30.1853 3.15212 30.3002 3.11822 30.3495C2.91486 30.686 2.3929 30.4398 2.17598 30.5957L2.20987 30.7599L2.0404 30.5957C1.90483 30.9734 1.51844 30.9734 1.73536 30.5137C1.46421 30.6122 0.718548 30.3905 0.92191 30.9241C0.827008 31.0308 0.677875 30.686 0.637202 30.6122L0.183027 30.6614C-0.10168 30.054 0.684654 30.4069 0.847344 30.1032H0.481292L0.413504 29.9472C0.298265 30.0211 0.081345 30.095 0 29.9472L0.0677875 29.1263L0.508406 29.2084C0.359274 28.8472 0.386389 28.5435 0.779556 28.5517L0.576194 28.1413H0.847344L0.786335 27.9114L1.01681 27.6569C1.51166 28.092 1.23373 27.2711 1.25407 27.2465C1.30152 27.2301 1.34897 27.2875 1.38286 27.2875C1.68791 27.2629 1.41676 27.1644 1.40998 27.148C1.26763 26.9263 1.66757 26.598 1.86416 26.836L1.93194 26.2614L2.20309 26.3025L2.13531 26.1383L2.30477 25.9331L2.47424 26.0972C2.49458 25.7525 2.76573 25.8592 2.98265 25.851L3.01654 26.0151C2.79962 25.9987 2.85385 26.4174 2.73184 26.5734C2.60982 26.7293 2.34545 26.951 2.18276 27.1726C2.02007 27.3943 1.74892 27.7965 1.532 28.1084C1.59979 28.2316 1.65401 28.2316 1.76248 28.2316C1.87093 28.2316 2.51492 28.1002 2.69794 28.0428C3.44361 27.8211 4.1486 27.2383 4.92137 27.0823L4.85359 26.9181L5.63314 26.7293C6.64995 26.089 7.74133 25.851 8.88016 25.3584C9.5377 25.0711 9.25299 24.3241 9.28011 23.692C9.30722 23.0599 9.40213 22.633 9.38857 22.0502C9.34112 20.1622 9.5377 17.6666 9.65972 15.7293C9.78174 13.792 9.7614 13.7838 9.88342 12.8808C10.0054 11.9778 9.95121 12.6345 10.0732 12.651C10.0325 12.4704 9.80885 12.5607 9.86986 12.3226H10.0732L9.99866 11.8793L10.1342 11.8301V11.6741L9.99866 11.5592L10.0664 11.0995L10.202 11.2636L10.0732 10.5741L10.263 10.4345L10.202 10.0323H10.4732L10.202 9.86812V9.63005H10.4054C10.4596 9.36737 10.3308 9.40841 10.3105 9.38379C10.141 9.1211 10.5003 9.26886 10.5342 9.09647C10.5681 8.92408 10.3308 8.96513 10.3308 8.80916L10.602 8.68602L10.4664 8.39871L10.7375 8.31662C10.3918 7.87334 10.8392 7.55319 10.968 7.24946C11.0968 6.94572 11.0629 6.6502 11.1578 6.53528C11.2527 6.42035 11.6866 6.50244 11.7544 6.31363L11.6188 6.22334C11.5442 5.85393 11.7815 5.9196 11.8832 5.81289C12.2831 5.37781 12.4254 5.18901 13.0084 5.53378C13.0491 5.59125 13.1033 6.04274 13.0898 6.09199L13.0965 6.05916Z" fill="#322E2E"/>
<path d="M57.2791 6.03118C57.3274 6.06347 57.5276 6.56407 57.5691 6.09577H57.6381C57.6657 6.39451 58.1559 6.44296 58.2526 6.72556C58.3492 7.00815 58.3492 7.50875 58.1973 7.7429C58.0454 7.97705 58.0454 7.76712 57.9833 7.84786C57.9212 7.92861 57.3412 8.66335 57.3136 8.7118C57.286 8.76024 57.3136 8.89751 57.2929 8.9298C57.2722 8.9621 57.141 8.85713 57.0513 8.88136C56.9201 8.92173 56.8303 9.03477 56.7061 9.09936C56.5818 9.16395 56.4851 9.09936 56.4713 9.09936C56.423 9.14781 56.4161 9.38196 56.3885 9.40618C56.3609 9.4304 56.2504 9.34158 56.1883 9.37388C56.0571 9.43847 56.0156 9.68877 55.9673 9.72107C55.919 9.75337 55.4909 9.72107 55.415 9.75337C55.2562 9.80989 54.6901 10.262 54.6348 10.2701C54.483 10.2863 54.2344 9.91485 54.0756 9.89063C53.9168 9.86641 53.5164 9.97137 53.3921 10.0602C53.1574 10.2297 53.4473 10.5769 53.4266 10.7303C53.4059 10.8837 53.2816 10.803 53.2264 10.916C53.1712 11.0291 52.9641 11.6669 52.9641 11.7073C52.9641 11.7881 53.0538 11.8849 53.0538 11.9657C53.1436 15.2115 53.4957 18.9902 54.0549 22.1714C54.1377 22.6478 54.3587 23.0677 54.3173 23.5602L54.1032 23.6086L54.2413 23.8509L54.0756 23.7863L53.8892 24.3272C53.7097 24.2384 53.6337 24.4564 53.5164 24.5775L53.4128 24.4161L53.4819 24.9005C53.3645 24.9893 53.0883 24.2304 53.2057 24.731C53.0124 24.7471 52.8881 24.949 52.7293 25.0216C52.4946 25.1347 52.2944 24.9005 52.4462 25.2961L52.1701 24.9732C52.101 25.3365 51.7904 25.498 51.4797 25.4576L51.6178 25.6191C51.2726 25.6756 51.0792 25.9501 50.7202 25.7806L50.7548 26.1843C50.5683 26.1359 50.6098 25.9259 50.5338 25.8613C50.4579 25.7967 50.1679 25.7402 50.1127 25.6837C50.0574 25.6272 50.1541 25.5626 50.1127 25.4899C50.0436 25.393 49.8987 25.3607 49.8296 25.2477L50.0367 25.0458L49.8296 25.0055C49.8987 24.6987 49.9332 24.4645 49.8296 24.1577L49.6915 24.2384V23.9962L49.8296 24.0769C49.8089 23.9558 49.871 23.8186 49.8641 23.7136C49.6432 20.5162 49.2566 17.0363 49.5465 13.7985C49.5949 13.2656 49.6846 13.0638 49.8158 12.6439C49.947 12.2241 49.8158 12.3694 49.8918 12.1998C49.9677 12.0303 50.5407 11.4409 50.7202 11.4166L50.6443 11.1825C49.9194 11.3843 49.229 11.7154 48.5178 11.9495C47.4891 12.2887 46.5019 12.4663 45.5422 12.983C44.8932 13.3302 44.6309 12.9992 44.0371 12.7004C44.1061 12.1433 44.189 11.4974 44.7896 11.4974L44.6585 11.1018L44.8587 10.9726L44.7275 10.9322L44.7896 10.7303C45.121 10.8515 45.197 10.3509 45.3834 10.2136C45.5698 10.0763 45.9564 10.0279 46.1843 9.88255C46.2602 9.83411 46.5295 9.49499 46.5985 9.45462C47.1785 9.18818 48.1105 9.05899 48.725 8.86521C51.1966 8.07394 53.6061 6.94356 55.9673 6.21688C56.2849 6.11999 56.9408 5.8051 57.2653 6.03118H57.2791Z" fill="#322E2E"/>
<path d="M19.8642 0.17758L19.8302 0.0119077C19.9935 -0.0543611 20.1296 0.17758 20.2385 0.17758C20.3474 0.17758 20.4767 0.045041 20.6604 0.0367574C21.6064 0.0201902 23.5663 0.749146 23.1512 2.31475C23.1035 2.49698 22.9674 2.59639 22.947 2.71236C22.8381 3.19281 22.3413 4.36079 22.0487 4.75012C21.2389 5.83527 19.9663 7.11923 18.8978 8.03871C17.8294 8.95819 18.054 9.02446 17.4891 9.03274L17.5572 9.19841C17.3666 9.19841 17.2373 9.28125 17.1829 9.03274L17.0127 9.19841C17.0332 8.73453 17.3054 8.27893 17.4891 7.85647C17.6729 7.43401 17.7001 7.29319 17.8362 6.93699C17.9723 6.5808 18.9046 5.35483 18.9182 4.94065L18.646 4.80811L18.7141 4.64244C17.7137 4.33594 16.6453 4.43535 15.6244 4.56788C13.998 4.78326 12.2966 5.1643 10.7042 5.53706C9.39754 5.84356 8.14535 6.19147 6.89316 6.68848C6.70261 6.76304 6.37596 6.73818 6.22624 6.87072C6.07652 7.00326 6.10374 7.20207 6.02888 7.29319C5.95402 7.38431 5.83153 7.35117 5.7975 7.38431C5.76348 7.41744 5.85875 7.55826 5.77028 7.68252C5.64778 7.86476 5.30752 8.18781 5.11016 8.03871C5.21905 8.51916 4.73586 8.89192 4.36157 8.7014L4.49087 8.97475C4.36837 9.36408 3.93964 9.13214 4.0213 9.52147L3.81714 9.39722L4.0213 9.10729C3.58576 9.14043 3.46326 9.10729 3.68103 8.61028C3.46326 8.75938 2.47648 8.79252 2.38801 8.56886C2.34038 8.41147 2.51732 8.46946 2.52412 8.3949C2.53093 8.32035 2.45607 8.20438 2.5037 8.05528C2.55134 7.90617 2.84397 7.60796 2.89161 7.45886C2.93925 7.30975 2.91203 6.97841 3.0073 6.77132C3.15702 6.45654 4.41601 4.98206 4.67462 4.81639C4.93322 4.65072 4.9128 4.81639 4.96725 4.76669C5.02169 4.71699 5.04891 4.5596 5.11016 4.5099C5.19863 4.43535 5.30752 4.54303 5.38237 4.5099C5.52529 4.44363 5.60015 4.02945 5.92 4.31109V4.07087C6.21943 4.11229 6.45762 3.83064 6.73664 3.68982C7.01566 3.549 7.64856 3.18452 7.98202 3.0437C8.31549 2.90288 8.48562 3.01057 8.62853 2.93602C8.77144 2.86146 8.717 2.76206 8.72381 2.75378C8.76464 2.73721 8.86672 2.83661 8.94158 2.82833C9.01644 2.82005 8.98241 2.68751 9.03685 2.66266C10.4728 1.99169 12.2082 1.71833 13.7189 1.26273C13.821 1.2296 13.8074 1.08877 13.8551 1.08877C15.6108 1.01422 17.5095 0.268699 19.2925 0.0533256C19.5307 0.0284749 19.6464 0.119594 19.871 0.169295L19.8642 0.17758Z" fill="#322E2E"/>
<path d="M96.9999 5.99263L96.8004 5.82907C96.7473 5.68186 97.0663 5.69821 96.847 5.48558C96.4747 5.10938 95.7568 5.25659 95.3247 5.19934C93.6297 4.96217 91.8482 4.61868 90.1332 4.82313C89.1959 4.93763 86.783 5.73911 86.0252 5.46104C85.9454 5.42833 86.0252 5.24023 85.6928 5.32201C85.5731 5.35472 85.1942 5.57554 85.1078 5.67368C85.0547 5.7391 84.9682 6.24616 84.7755 6.32794C85.2408 6.85953 84.7223 6.78593 84.6093 7.0231C84.4763 7.30116 84.6824 7.68554 84.6226 7.88182C84.6093 7.92271 84.5029 7.91453 84.5029 7.9636C84.5029 8.12717 84.6558 8.34798 84.5029 8.5688C84.7356 8.65876 85.068 8.58515 85.1012 8.97771C85.5067 8.69147 85.3804 8.92864 85.4801 8.97771C85.726 9.08403 86.4572 9.00225 86.7298 9.00225C87.7402 9.00225 88.6575 8.93682 89.6014 9.0595C89.5682 9.09221 89.5349 9.11674 89.4951 9.14945L89.6945 9.4357L89.3621 9.35391V9.59926L89.6945 9.64015L89.2292 9.84461C89.289 10.0736 89.4219 10 89.5615 9.92639V10.2126L89.2956 10.2535L89.4951 10.6624L89.289 10.7033C89.2425 11.2186 89.4286 11.7992 89.2292 12.249C89.6014 12.478 89.2956 12.4208 89.2956 12.6579C89.2956 12.7806 89.4552 12.9033 89.4286 12.9442C89.4219 12.9605 89.3089 12.8869 89.289 13.0587C89.2159 13.762 89.4153 14.678 89.2292 15.4304C89.4685 15.5285 89.2558 16.2155 89.2558 16.5099C89.2358 18.3092 89.2358 19.9612 89.1627 21.6377C89.1494 21.8749 89.1494 22.2102 89.0364 22.3738C89.2757 22.5619 89.1029 23.4206 89.1295 23.7641C89.1427 23.9276 89.3555 24.1157 89.3023 24.3611C89.5948 24.4511 89.8141 24.3611 90.0933 24.2875L89.8939 24.1239C90.4589 24.263 90.1332 23.3225 90.5586 23.3879C90.4323 23.1998 90.6052 23.2488 90.6384 23.118C90.7248 22.7254 90.5852 22.5619 90.8976 22.3901C90.9508 22.3656 91.0173 22.4147 91.0239 22.4065C91.0705 22.3247 91.0239 22.1121 91.0439 22.0466C91.0505 22.0221 91.1702 21.6459 91.1901 21.5968C91.2366 21.4823 91.3829 21.4905 91.4228 21.3678C91.4959 21.1716 91.5025 20.4192 91.4228 20.2065H91.6222C91.5823 19.9775 91.4427 19.7894 91.3962 19.5604C91.23 18.7671 91.3231 17.8185 91.2699 17.0006C91.1702 15.4304 91.0106 13.8111 90.8644 12.2654C90.8245 11.8728 90.6716 9.48477 90.5985 9.34574C90.5586 9.27213 90.4257 9.29667 90.4323 9.22306C90.4323 9.22306 90.4323 9.22306 90.4323 9.21488C90.5054 9.23124 90.5852 9.25577 90.6583 9.28031C91.117 9.41934 91.9213 9.31302 92.4265 9.46841C92.5063 9.49295 92.5196 9.82008 92.8719 9.63198L92.8054 9.79554L94.0019 9.95911L93.9022 10.2045C94.4008 10.7033 95.1453 10.5316 95.4843 9.87733C95.5242 9.79554 95.4843 9.66469 95.5906 9.5093C95.697 9.36209 96.0028 9.2067 96.0626 9.08403C96.1025 9.00225 96.0626 8.89593 96.0692 8.85504C96.0825 8.80597 96.1822 8.8305 96.1889 8.76508C96.2022 8.36434 96.2022 8.59333 96.2819 8.32345C96.3418 8.12717 96.4282 7.4729 96.6077 7.3993C96.6741 7.37476 96.7805 7.44019 96.7872 7.42384C96.9002 7.22756 96.6276 7.30934 96.6542 7.17849H96.7739C96.8004 7.12942 96.734 6.45062 96.9134 6.49151L96.8536 6.09077L96.9932 6.00081L96.9999 5.99263Z" fill="#322E2E"/>
</svg>
